# This file uses centimeters as units for non-parametric coordinates.

mtllib enemy.mtl
g default
v -0.2 0.000000 0.2
v 0.2 0.000000 0.2
v -0.2 2.000000 0.2
v 0.2 2.000000 0.2
v -0.2 2.000000 -0.2
v 0.2 2.000000 -0.2
v -0.2 0.000000 -0.2
v 0.2 0.000000 -0.2
vt 0.671108 0.922358
vt 0.665294 0.348116
vt 0.830002 0.922358
vt 0.829260 0.348924
vt 0.478948 0.928164
vt 0.480563 0.346312
vt 0.638191 0.924352
vt 0.638489 0.346913
vt 0.347533 0.248312
vt 0.137521 0.248312
vt 0.347533 0.019103
vt 0.137521 0.019103
vt 0.734594 0.250195
vt 0.524583 0.250195
vt 0.734594 0.020987
vt 0.524583 0.020987
vt 0.103416 0.924057
vt 0.103070 0.344403
vt 0.269804 0.926117
vt 0.266261 0.344403
vt 0.452659 0.344578
vt 0.455537 0.921429
vt 0.290636 0.344475
vt 0.289228 0.922982
vn 0.000000 0.000000 1.000000
vn 0.000000 0.000000 1.000000
vn 0.000000 0.000000 1.000000
vn 0.000000 0.000000 1.000000
vn 0.000000 0.000000 1.000000
vn 0.000000 0.000000 1.000000
vn 0.000000 1.000000 0.000000
vn 0.000000 1.000000 0.000000
vn 0.000000 1.000000 0.000000
vn 0.000000 1.000000 0.000000
vn 0.000000 1.000000 0.000000
vn 0.000000 1.000000 0.000000
vn 0.000000 0.000000 -1.000000
vn 0.000000 0.000000 -1.000000
vn 0.000000 0.000000 -1.000000
vn 0.000000 0.000000 -1.000000
vn 0.000000 0.000000 -1.000000
vn 0.000000 0.000000 -1.000000
vn 0.000000 -1.000000 0.000000
vn 0.000000 -1.000000 0.000000
vn 0.000000 -1.000000 0.000000
vn 0.000000 -1.000000 0.000000
vn 0.000000 -1.000000 0.000000
vn 0.000000 -1.000000 0.000000
vn 1.000000 0.000000 0.000000
vn 1.000000 0.000000 0.000000
vn 1.000000 0.000000 0.000000
vn 1.000000 0.000000 0.000000
vn 1.000000 0.000000 0.000000
vn 1.000000 0.000000 0.000000
vn -1.000000 0.000000 0.000000
vn -1.000000 0.000000 0.000000
vn -1.000000 0.000000 0.000000
vn -1.000000 0.000000 0.000000
vn -1.000000 0.000000 0.000000
vn -1.000000 0.000000 0.000000
s off
g mainguy:pCube1 group
usemtl mainguy:lambert2SG
f 3/17/1 1/18/2 4/19/3
f 4/19/4 1/18/5 2/20/6
f 5/9/7 3/10/8 6/11/9
f 6/11/10 3/10/11 4/12/12
f 7/21/13 5/22/14 8/23/15
f 8/23/16 5/22/17 6/24/18
f 1/13/19 7/14/20 2/15/21
f 2/15/22 7/14/23 8/16/24
f 4/1/25 2/2/26 6/3/27
f 6/3/28 2/2/29 8/4/30
f 5/5/31 7/6/32 3/7/33
f 3/7/34 7/6/35 1/8/36
