# This file uses centimeters as units for non-parametric coordinates.

mtllib bullet.mtl
g default
v 0.039880 -0.122737 -0.214025
v 0.075856 -0.104407 -0.214025
v 0.104407 -0.075856 -0.214025
v 0.122737 -0.039880 -0.214025
v 0.129054 0.000000 -0.214025
v 0.122737 0.039880 -0.214025
v 0.104407 0.075856 -0.214025
v 0.075856 0.104406 -0.214025
v 0.039880 0.122737 -0.214025
v -0.000000 0.129054 -0.214025
v -0.039880 0.122737 -0.214025
v -0.075856 0.104406 -0.214025
v -0.104406 0.075856 -0.214025
v -0.122737 0.039880 -0.214025
v -0.129053 0.000000 -0.214025
v -0.122737 -0.039880 -0.214025
v -0.104406 -0.075856 -0.214025
v -0.075856 -0.104406 -0.214025
v -0.039880 -0.122737 -0.214025
v -0.000000 -0.129053 -0.214025
v 0.039880 -0.122737 0.214025
v 0.075856 -0.104407 0.214025
v 0.104407 -0.075856 0.214025
v 0.122737 -0.039880 0.214025
v 0.129054 0.000000 0.214025
v 0.122737 0.039880 0.214025
v 0.104407 0.075856 0.214025
v 0.075856 0.104406 0.214025
v 0.039880 0.122737 0.214025
v 0.000000 0.129054 0.214025
v -0.039880 0.122737 0.214025
v -0.075856 0.104406 0.214025
v -0.104406 0.075856 0.214025
v -0.122737 0.039880 0.214025
v -0.129053 0.000000 0.214025
v -0.122737 -0.039880 0.214025
v -0.104406 -0.075856 0.214025
v -0.075856 -0.104406 0.214025
v -0.039880 -0.122737 0.214025
v 0.000000 -0.129053 0.214025
v -0.000000 0.000000 -0.214025
v 0.000000 0.000000 0.390082
vt 0.202122 0.001992
vt 0.252052 0.001992
vt 0.202122 0.270655
vt 0.252052 0.270655
vt 0.291676 0.001992
vt 0.291676 0.270655
vt 0.212427 0.998008
vt 0.162497 0.998008
vt 0.212427 0.729345
vt 0.162497 0.729345
vt 0.107150 0.998008
vt 0.107150 0.729345
vt 0.051802 0.998008
vt 0.051802 0.729345
vt 0.001872 0.998008
vt 0.001872 0.729345
vt 0.298823 0.001992
vt 0.338448 0.001992
vt 0.298823 0.270655
vt 0.338448 0.270655
vt 0.388378 0.001992
vt 0.388378 0.270655
vt 0.443725 0.001992
vt 0.443725 0.270655
vt 0.499073 0.001992
vt 0.499073 0.270655
vt 0.549003 0.001992
vt 0.549003 0.270655
vt 0.588627 0.001992
vt 0.588627 0.270655
vt 0.218220 0.729345
vt 0.268150 0.729345
vt 0.218220 0.998008
vt 0.268150 0.998008
vt 0.323497 0.729345
vt 0.323497 0.998008
vt 0.378845 0.729345
vt 0.378845 0.998008
vt 0.428775 0.729345
vt 0.428775 0.998008
vt 0.001872 0.001992
vt 0.041497 0.001992
vt 0.001872 0.270655
vt 0.041497 0.270655
vt 0.091427 0.001992
vt 0.091427 0.270655
vt 0.146774 0.001992
vt 0.146774 0.270655
vt 0.903862 0.458739
vt 0.929302 0.508669
vt 0.758960 0.564017
vt 0.864237 0.419115
vt 0.814308 0.393674
vt 0.758960 0.384908
vt 0.703612 0.393674
vt 0.653682 0.419115
vt 0.614058 0.458740
vt 0.588618 0.508669
vt 0.579851 0.564017
vt 0.588618 0.619365
vt 0.614058 0.669294
vt 0.653683 0.708919
vt 0.703612 0.734359
vt 0.758960 0.743126
vt 0.814308 0.734359
vt 0.864237 0.708919
vt 0.903862 0.669294
vt 0.929302 0.619365
vt 0.938069 0.564017
vt 0.450323 0.384908
vt 0.500253 0.410349
vt 0.394976 0.555251
vt 0.539878 0.449973
vt 0.565318 0.499903
vt 0.574085 0.555251
vt 0.565318 0.610598
vt 0.539878 0.660528
vt 0.500253 0.700153
vt 0.450323 0.725593
vt 0.443725 0.381157
vt 0.333861 0.725593
vt 0.283932 0.700153
vt 0.389209 0.555251
vt 0.244307 0.660528
vt 0.218867 0.610598
vt 0.210100 0.555251
vt 0.218867 0.499903
vt 0.244307 0.449973
vt 0.283932 0.410349
vt 0.333861 0.384908
vt 0.146774 0.381157
vn 0.309016 -0.951057 -0.000000
vn 0.587785 -0.809017 -0.000000
vn 0.309016 -0.951057 -0.000000
vn 0.309016 -0.951057 -0.000000
vn 0.587785 -0.809017 -0.000000
vn 0.587785 -0.809017 -0.000000
vn 0.587785 -0.809017 -0.000000
vn 0.809017 -0.587785 -0.000000
vn 0.587785 -0.809017 -0.000000
vn 0.587785 -0.809017 -0.000000
vn 0.809017 -0.587785 -0.000000
vn 0.809017 -0.587785 -0.000000
vn 0.809017 -0.587785 -0.000000
vn 0.951057 -0.309017 -0.000000
vn 0.809017 -0.587785 -0.000000
vn 0.809017 -0.587785 -0.000000
vn 0.951057 -0.309017 -0.000000
vn 0.951057 -0.309017 -0.000000
vn 0.951057 -0.309017 -0.000000
vn 1.000000 0.000000 -0.000000
vn 0.951057 -0.309017 -0.000000
vn 0.951057 -0.309017 -0.000000
vn 1.000000 0.000000 -0.000000
vn 1.000000 0.000000 -0.000000
vn 1.000000 0.000000 -0.000000
vn 0.951056 0.309017 -0.000000
vn 1.000000 0.000000 -0.000000
vn 1.000000 0.000000 -0.000000
vn 0.951056 0.309017 -0.000000
vn 0.951056 0.309017 -0.000000
vn 0.951056 0.309017 -0.000000
vn 0.809017 0.587786 -0.000000
vn 0.951056 0.309017 -0.000000
vn 0.951056 0.309017 -0.000000
vn 0.809017 0.587786 -0.000000
vn 0.809017 0.587785 -0.000000
vn 0.809017 0.587786 -0.000000
vn 0.587785 0.809017 -0.000000
vn 0.809017 0.587785 -0.000000
vn 0.809017 0.587785 -0.000000
vn 0.587785 0.809017 -0.000000
vn 0.587785 0.809017 -0.000000
vn 0.587785 0.809017 -0.000000
vn 0.309017 0.951057 -0.000000
vn 0.587785 0.809017 -0.000000
vn 0.587785 0.809017 -0.000000
vn 0.309017 0.951057 -0.000000
vn 0.309017 0.951057 -0.000000
vn 0.309017 0.951057 -0.000000
vn -0.000000 1.000000 0.000000
vn 0.309017 0.951057 -0.000000
vn 0.309017 0.951057 -0.000000
vn -0.000000 1.000000 0.000000
vn 0.000000 1.000000 -0.000000
vn -0.000000 1.000000 0.000000
vn -0.309017 0.951057 0.000000
vn 0.000000 1.000000 -0.000000
vn 0.000000 1.000000 -0.000000
vn -0.309017 0.951057 0.000000
vn -0.309017 0.951057 0.000000
vn -0.309017 0.951057 0.000000
vn -0.587785 0.809017 0.000000
vn -0.309017 0.951057 0.000000
vn -0.309017 0.951057 0.000000
vn -0.587785 0.809017 0.000000
vn -0.587785 0.809017 0.000000
vn -0.587785 0.809017 0.000000
vn -0.809017 0.587785 0.000000
vn -0.587785 0.809017 0.000000
vn -0.587785 0.809017 0.000000
vn -0.809017 0.587785 0.000000
vn -0.809017 0.587785 0.000000
vn -0.809017 0.587785 0.000000
vn -0.951056 0.309017 0.000000
vn -0.809017 0.587785 0.000000
vn -0.809017 0.587785 0.000000
vn -0.951056 0.309017 0.000000
vn -0.951057 0.309017 0.000000
vn -0.951056 0.309017 0.000000
vn -1.000000 -0.000000 0.000000
vn -0.951057 0.309017 0.000000
vn -0.951057 0.309017 0.000000
vn -1.000000 -0.000000 0.000000
vn -1.000000 -0.000000 0.000000
vn -1.000000 -0.000000 0.000000
vn -0.951056 -0.309017 0.000000
vn -1.000000 -0.000000 0.000000
vn -1.000000 -0.000000 0.000000
vn -0.951056 -0.309017 0.000000
vn -0.951056 -0.309017 0.000000
vn -0.951056 -0.309017 0.000000
vn -0.809017 -0.587785 0.000000
vn -0.951056 -0.309017 0.000000
vn -0.951056 -0.309017 0.000000
vn -0.809017 -0.587785 0.000000
vn -0.809017 -0.587785 0.000000
vn -0.809017 -0.587785 0.000000
vn -0.587785 -0.809017 0.000000
vn -0.809017 -0.587785 0.000000
vn -0.809017 -0.587785 0.000000
vn -0.587785 -0.809017 0.000000
vn -0.587785 -0.809017 0.000000
vn -0.587785 -0.809017 0.000000
vn -0.309017 -0.951057 0.000000
vn -0.587785 -0.809017 0.000000
vn -0.587785 -0.809017 0.000000
vn -0.309017 -0.951057 0.000000
vn -0.309017 -0.951057 0.000000
vn -0.309017 -0.951057 0.000000
vn -0.000001 -1.000000 0.000000
vn -0.309017 -0.951057 0.000000
vn -0.309017 -0.951057 0.000000
vn -0.000001 -1.000000 0.000000
vn -0.000001 -1.000000 0.000000
vn -0.000001 -1.000000 0.000000
vn 0.309016 -0.951057 -0.000000
vn -0.000001 -1.000000 0.000000
vn -0.000001 -1.000000 0.000000
vn 0.309016 -0.951057 -0.000000
vn 0.309016 -0.951057 -0.000000
vn -0.000000 0.000000 -1.000000
vn -0.000000 0.000000 -1.000000
vn -0.000000 0.000000 -1.000000
vn -0.000000 0.000000 -1.000000
vn -0.000000 0.000000 -1.000000
vn -0.000000 0.000000 -1.000000
vn -0.000000 0.000000 -1.000000
vn -0.000000 0.000000 -1.000000
vn -0.000000 0.000000 -1.000000
vn -0.000000 0.000000 -1.000000
vn -0.000000 0.000000 -1.000000
vn -0.000000 0.000000 -1.000000
vn -0.000000 0.000000 -1.000000
vn -0.000000 0.000000 -1.000000
vn -0.000000 0.000000 -1.000000
vn -0.000000 0.000000 -1.000000
vn -0.000000 0.000000 -1.000000
vn -0.000000 0.000000 -1.000000
vn -0.000000 0.000000 -1.000000
vn -0.000000 0.000000 -1.000000
vn -0.000000 0.000000 -1.000000
vn -0.000000 0.000000 -1.000000
vn -0.000000 0.000000 -1.000000
vn -0.000000 0.000000 -1.000000
vn -0.000000 0.000000 -1.000000
vn -0.000000 0.000000 -1.000000
vn -0.000000 0.000000 -1.000000
vn -0.000000 0.000000 -1.000000
vn -0.000000 0.000000 -1.000000
vn -0.000000 0.000000 -1.000000
vn -0.000000 0.000000 -1.000000
vn -0.000000 0.000000 -1.000000
vn -0.000000 0.000000 -1.000000
vn -0.000000 0.000000 -1.000000
vn -0.000000 0.000000 -1.000000
vn -0.000000 0.000000 -1.000000
vn -0.000000 0.000000 -1.000000
vn -0.000000 0.000000 -1.000000
vn -0.000000 0.000000 -1.000000
vn -0.000000 0.000000 -1.000000
vn -0.000000 0.000000 -1.000000
vn -0.000000 0.000000 -1.000000
vn -0.000000 0.000000 -1.000000
vn -0.000000 0.000000 -1.000000
vn -0.000000 0.000000 -1.000000
vn -0.000000 0.000000 -1.000000
vn -0.000000 0.000000 -1.000000
vn -0.000000 0.000000 -1.000000
vn -0.000000 0.000000 -1.000000
vn -0.000000 0.000000 -1.000000
vn -0.000000 0.000000 -1.000000
vn -0.000000 0.000000 -1.000000
vn -0.000000 0.000000 -1.000000
vn -0.000000 0.000000 -1.000000
vn -0.000000 0.000000 -1.000000
vn -0.000000 0.000000 -1.000000
vn -0.000000 0.000000 -1.000000
vn -0.000000 0.000000 -1.000000
vn -0.000000 0.000000 -1.000000
vn -0.000000 0.000000 -1.000000
vn 0.249229 -0.767052 0.591199
vn 0.474064 -0.652493 0.591199
vn 0.000000 -0.000000 1.000000
vn 0.474064 -0.652493 0.591199
vn 0.652493 -0.474064 0.591199
vn 0.000000 -0.000000 1.000000
vn 0.652493 -0.474064 0.591199
vn 0.767051 -0.249230 0.591199
vn 0.000000 -0.000000 1.000000
vn 0.767051 -0.249230 0.591199
vn 0.806526 0.000000 0.591199
vn 0.000000 -0.000000 1.000000
vn 0.806526 0.000000 0.591199
vn 0.767051 0.249230 0.591199
vn 0.000000 -0.000000 1.000000
vn 0.767051 0.249230 0.591199
vn 0.652493 0.474064 0.591199
vn 0.000000 -0.000000 1.000000
vn 0.652493 0.474064 0.591199
vn 0.474064 0.652493 0.591199
vn 0.000000 -0.000000 1.000000
vn 0.474064 0.652493 0.591199
vn 0.249230 0.767052 0.591199
vn 0.000000 -0.000000 1.000000
vn 0.249230 0.767052 0.591199
vn 0.000000 0.806526 0.591199
vn 0.000000 -0.000000 1.000000
vn 0.000000 0.806526 0.591199
vn -0.249230 0.767052 0.591199
vn 0.000000 -0.000000 1.000000
vn -0.249230 0.767052 0.591199
vn -0.474064 0.652493 0.591199
vn 0.000000 -0.000000 1.000000
vn -0.474064 0.652493 0.591199
vn -0.652493 0.474064 0.591199
vn 0.000000 -0.000000 1.000000
vn -0.652493 0.474064 0.591199
vn -0.767052 0.249230 0.591199
vn 0.000000 -0.000000 1.000000
vn -0.767052 0.249230 0.591199
vn -0.806526 -0.000000 0.591199
vn 0.000000 -0.000000 1.000000
vn -0.806526 -0.000000 0.591199
vn -0.767052 -0.249230 0.591199
vn 0.000000 -0.000000 1.000000
vn -0.767052 -0.249230 0.591199
vn -0.652493 -0.474064 0.591199
vn 0.000000 -0.000000 1.000000
vn -0.652493 -0.474064 0.591199
vn -0.474064 -0.652493 0.591199
vn 0.000000 -0.000000 1.000000
vn -0.474064 -0.652493 0.591199
vn -0.249230 -0.767051 0.591199
vn 0.000000 -0.000000 1.000000
vn -0.249230 -0.767051 0.591199
vn 0.000000 -0.806526 0.591199
vn 0.000000 -0.000000 1.000000
vn 0.000000 -0.806526 0.591199
vn 0.249229 -0.767052 0.591199
vn 0.000000 -0.000000 1.000000
s off
g bullet:pCylinder1
usemtl lambert3SG
f 1/1/1 2/2/2 21/3/3
f 21/3/4 2/2/5 22/4/6
f 2/2/7 3/5/8 22/4/9
f 22/4/10 3/5/11 23/6/12
f 3/7/13 4/8/14 23/9/15
f 23/9/16 4/8/17 24/10/18
f 4/8/19 5/11/20 24/10/21
f 24/10/22 5/11/23 25/12/24
f 5/11/25 6/13/26 25/12/27
f 25/12/28 6/13/29 26/14/30
f 6/13/31 7/15/32 26/14/33
f 26/14/34 7/15/35 27/16/36
f 7/17/37 8/18/38 27/19/39
f 27/19/40 8/18/41 28/20/42
f 8/18/43 9/21/44 28/20/45
f 28/20/46 9/21/47 29/22/48
f 9/21/49 10/23/50 29/22/51
f 29/22/52 10/23/53 30/24/54
f 10/23/55 11/25/56 30/24/57
f 30/24/58 11/25/59 31/26/60
f 11/25/61 12/27/62 31/26/63
f 31/26/64 12/27/65 32/28/66
f 12/27/67 13/29/68 32/28/69
f 32/28/70 13/29/71 33/30/72
f 13/31/73 14/32/74 33/33/75
f 33/33/76 14/32/77 34/34/78
f 14/32/79 15/35/80 34/34/81
f 34/34/82 15/35/83 35/36/84
f 15/35/85 16/37/86 35/36/87
f 35/36/88 16/37/89 36/38/90
f 16/37/91 17/39/92 36/38/93
f 36/38/94 17/39/95 37/40/96
f 17/41/97 18/42/98 37/43/99
f 37/43/100 18/42/101 38/44/102
f 18/42/103 19/45/104 38/44/105
f 38/44/106 19/45/107 39/46/108
f 19/45/109 20/47/110 39/46/111
f 39/46/112 20/47/113 40/48/114
f 20/47/115 1/1/116 40/48/117
f 40/48/118 1/1/119 21/3/120
f 2/49/121 1/50/122 41/51/123
f 3/52/124 2/49/125 41/51/126
f 4/53/127 3/52/128 41/51/129
f 5/54/130 4/53/131 41/51/132
f 6/55/133 5/54/134 41/51/135
f 7/56/136 6/55/137 41/51/138
f 8/57/139 7/56/140 41/51/141
f 9/58/142 8/57/143 41/51/144
f 10/59/145 9/58/146 41/51/147
f 11/60/148 10/59/149 41/51/150
f 12/61/151 11/60/152 41/51/153
f 13/62/154 12/61/155 41/51/156
f 14/63/157 13/62/158 41/51/159
f 15/64/160 14/63/161 41/51/162
f 16/65/163 15/64/164 41/51/165
f 17/66/166 16/65/167 41/51/168
f 18/67/169 17/66/170 41/51/171
f 19/68/172 18/67/173 41/51/174
f 20/69/175 19/68/176 41/51/177
f 1/50/178 20/69/179 41/51/180
f 21/70/181 22/71/182 42/72/183
f 22/71/184 23/73/185 42/72/186
f 23/73/187 24/74/188 42/72/189
f 24/74/190 25/75/191 42/72/192
f 25/75/193 26/76/194 42/72/195
f 26/76/196 27/77/197 42/72/198
f 27/77/199 28/78/200 42/72/201
f 28/78/202 29/79/203 42/72/204
f 29/22/205 30/24/206 42/80/207
f 30/24/208 31/26/209 42/80/210
f 31/81/211 32/82/212 42/83/213
f 32/82/214 33/84/215 42/83/216
f 33/84/217 34/85/218 42/83/219
f 34/85/220 35/86/221 42/83/222
f 35/86/223 36/87/224 42/83/225
f 36/87/226 37/88/227 42/83/228
f 37/88/229 38/89/230 42/83/231
f 38/89/232 39/90/233 42/83/234
f 39/46/235 40/48/236 42/91/237
f 40/48/238 21/3/239 42/91/240
