# This file uses centimeters as units for non-parametric coordinates.

mtllib crosshair.mtl
g default
v 0.951057 -0.029734 -0.309017
v 0.809018 -0.029734 -0.587786
v 0.587786 -0.029734 -0.809017
v 0.309017 -0.029734 -0.951057
v 0.000000 -0.029734 -1.000000
v -0.309017 -0.029734 -0.951057
v -0.587785 -0.029734 -0.809017
v -0.809017 -0.029734 -0.587785
v -0.951057 -0.029734 -0.309017
v -1.000000 -0.029734 0.000000
v -0.951057 -0.029734 0.309017
v -0.809017 -0.029734 0.587785
v -0.587785 -0.029734 0.809017
v -0.309017 -0.029734 0.951057
v -0.000000 -0.029734 1.000000
v 0.309017 -0.029734 0.951057
v 0.587785 -0.029734 0.809017
v 0.809017 -0.029734 0.587785
v 0.951057 -0.029734 0.309017
v 1.000000 -0.029734 0.000000
v 0.951057 0.029734 -0.309017
v 0.809018 0.029734 -0.587786
v 0.587786 0.029734 -0.809017
v 0.309017 0.029734 -0.951057
v 0.000000 0.029734 -1.000000
v -0.309017 0.029734 -0.951057
v -0.587785 0.029734 -0.809017
v -0.809017 0.029734 -0.587785
v -0.951057 0.029734 -0.309017
v -1.000000 0.029734 0.000000
v -0.951057 0.029734 0.309017
v -0.809017 0.029734 0.587785
v -0.587785 0.029734 0.809017
v -0.309017 0.029734 0.951057
v -0.000000 0.029734 1.000000
v 0.309017 0.029734 0.951057
v 0.587785 0.029734 0.809017
v 0.809017 0.029734 0.587785
v 0.951057 0.029734 0.309017
v 1.000000 0.029734 0.000000
v 0.000000 -0.029734 0.000000
v 0.000000 0.029734 0.000000
vt 0.696498 0.573714
vt 0.696498 0.510375
vt 0.923709 0.573714
vt 0.923709 0.510375
vt 0.923709 0.643926
vt 0.696498 0.460108
vt 0.696498 0.643926
vt 0.923709 0.460108
vt 0.923709 0.714138
vt 0.696498 0.714138
vt 0.923709 0.777477
vt 0.696498 0.777477
vt 0.923709 0.827744
vt 0.696498 0.827744
vt 0.463609 0.777477
vt 0.463609 0.714138
vt 0.690820 0.777477
vt 0.690820 0.714138
vt 0.690820 0.827744
vt 0.463609 0.643926
vt 0.463609 0.827744
vt 0.690820 0.643926
vt 0.463609 0.573714
vt 0.690820 0.573714
vt 0.463609 0.510375
vt 0.690820 0.510375
vt 0.463609 0.460108
vt 0.690820 0.460108
vt 0.412872 0.095652
vt 0.445145 0.158991
vt 0.229055 0.229203
vt 0.456266 0.229203
vt 0.362606 0.045385
vt 0.445145 0.299415
vt 0.299267 0.013113
vt 0.412872 0.362754
vt 0.229055 0.001992
vt 0.362606 0.413021
vt 0.158843 0.013113
vt 0.299267 0.445294
vt 0.095503 0.045386
vt 0.229055 0.456414
vt 0.045237 0.095652
vt 0.158843 0.445294
vt 0.012964 0.158991
vt 0.095503 0.413021
vt 0.001844 0.229203
vt 0.045237 0.362754
vt 0.012964 0.299415
vt 0.905310 0.299415
vt 0.873037 0.362754
vt 0.689219 0.229203
vt 0.822770 0.413021
vt 0.916430 0.229203
vt 0.759431 0.445294
vt 0.905310 0.158991
vt 0.689219 0.456414
vt 0.873037 0.095652
vt 0.619007 0.445294
vt 0.822770 0.045386
vt 0.555668 0.413021
vt 0.759431 0.013113
vt 0.505401 0.362754
vt 0.689219 0.001992
vt 0.473128 0.299415
vt 0.619007 0.013113
vt 0.462008 0.229203
vt 0.555668 0.045386
vt 0.473128 0.158991
vt 0.505401 0.095652
vt 0.457930 0.460108
vt 0.457930 0.523448
vt 0.230719 0.460108
vt 0.230719 0.523448
vt 0.457930 0.593660
vt 0.230719 0.593660
vt 0.457930 0.663872
vt 0.230719 0.663872
vt 0.457930 0.727211
vt 0.230719 0.727211
vt 0.001844 0.998008
vt 0.001844 0.934669
vt 0.229055 0.998008
vt 0.229055 0.934669
vt 0.001844 0.864457
vt 0.229055 0.864457
vt 0.001844 0.794245
vt 0.229055 0.794245
vt 0.001844 0.730905
vt 0.229055 0.730905
vn 0.951057 0.000000 -0.309016
vn 0.809017 0.000000 -0.587785
vn 0.951057 0.000000 -0.309016
vn 0.809017 0.000000 -0.587785
vn 0.587785 0.000000 -0.809017
vn 0.587785 0.000000 -0.809017
vn 0.309017 0.000000 -0.951057
vn 0.309017 0.000000 -0.951057
vn -0.000000 0.000000 -1.000000
vn -0.000000 0.000000 -1.000000
vn -0.309017 0.000000 -0.951057
vn -0.309017 0.000000 -0.951056
vn -0.587786 0.000000 -0.809017
vn -0.587786 0.000000 -0.809017
vn -0.809017 0.000000 -0.587785
vn -0.809017 0.000000 -0.587785
vn -0.951057 0.000000 -0.309017
vn -0.951057 0.000000 -0.309017
vn -1.000000 0.000000 0.000000
vn -1.000000 0.000000 0.000000
vn -0.951057 0.000000 0.309017
vn -0.951057 0.000000 0.309017
vn -0.809017 0.000000 0.587785
vn -0.809017 0.000000 0.587785
vn -0.587785 0.000000 0.809017
vn -0.587785 0.000000 0.809017
vn -0.309017 0.000000 0.951057
vn -0.309017 0.000000 0.951057
vn 0.000000 0.000000 1.000000
vn 0.000000 0.000000 1.000000
vn 0.309017 0.000000 0.951057
vn 0.309017 0.000000 0.951057
vn 0.587785 0.000000 0.809017
vn 0.587785 0.000000 0.809017
vn 0.809017 0.000000 0.587785
vn 0.809017 0.000000 0.587785
vn 0.951057 0.000000 0.309017
vn 0.951057 0.000000 0.309017
vn 1.000000 0.000000 0.000001
vn 1.000000 0.000000 0.000001
vn 0.000000 -1.000000 0.000000
vn 0.000000 -1.000000 0.000000
vn 0.000000 -1.000000 0.000000
vn 0.000000 -1.000000 0.000000
vn 0.000000 -1.000000 0.000000
vn 0.000000 -1.000000 0.000000
vn 0.000000 -1.000000 0.000000
vn 0.000000 -1.000000 0.000000
vn 0.000000 -1.000000 0.000000
vn 0.000000 -1.000000 0.000000
vn 0.000000 -1.000000 0.000000
vn 0.000000 -1.000000 0.000000
vn 0.000000 -1.000000 0.000000
vn 0.000000 -1.000000 0.000000
vn 0.000000 -1.000000 0.000000
vn 0.000000 -1.000000 0.000000
vn 0.000000 -1.000000 0.000000
vn 0.000000 -1.000000 0.000000
vn 0.000000 -1.000000 0.000000
vn 0.000000 -1.000000 0.000000
vn 0.000000 -1.000000 0.000000
vn 0.000000 1.000000 0.000000
vn 0.000000 1.000000 0.000000
vn 0.000000 1.000000 0.000000
vn 0.000000 1.000000 0.000000
vn 0.000000 1.000000 0.000000
vn 0.000000 1.000000 0.000000
vn 0.000000 1.000000 0.000000
vn 0.000000 1.000000 0.000000
vn 0.000000 1.000000 0.000000
vn 0.000000 1.000000 0.000000
vn 0.000000 1.000000 0.000000
vn 0.000000 1.000000 0.000000
vn 0.000000 1.000000 0.000000
vn 0.000000 1.000000 0.000000
vn 0.000000 1.000000 0.000000
vn 0.000000 1.000000 0.000000
vn 0.000000 1.000000 0.000000
vn 0.000000 1.000000 0.000000
vn 0.000000 1.000000 0.000000
vn 0.000000 1.000000 0.000000
vn 0.000000 1.000000 0.000000
s 1
g pCylinder1
usemtl lambert2SG
f 1/1/1 2/2/2 21/3/3
f 21/3/3 2/2/2 22/4/4
f 2/2/2 3/6/5 22/4/4
f 22/4/4 3/6/5 23/8/6
f 3/71/5 4/72/7 23/73/6
f 23/73/6 4/72/7 24/74/8
f 4/72/7 5/75/9 24/74/8
f 24/74/8 5/75/9 25/76/10
f 5/75/9 6/77/11 25/76/10
f 25/76/10 6/77/11 26/78/12
f 6/77/11 7/79/13 26/78/12
f 26/78/12 7/79/13 27/80/14
f 7/21/13 8/15/15 27/19/14
f 27/19/14 8/15/15 28/17/16
f 8/15/15 9/16/17 28/17/16
f 28/17/16 9/16/17 29/18/18
f 9/16/17 10/20/19 29/18/18
f 29/18/18 10/20/19 30/22/20
f 10/20/19 11/23/21 30/22/20
f 30/22/20 11/23/21 31/24/22
f 11/23/21 12/25/23 31/24/22
f 31/24/22 12/25/23 32/26/24
f 12/25/23 13/27/25 32/26/24
f 32/26/24 13/27/25 33/28/26
f 13/81/25 14/82/27 33/83/26
f 33/83/26 14/82/27 34/84/28
f 14/82/27 15/85/29 34/84/28
f 34/84/28 15/85/29 35/86/30
f 15/85/29 16/87/31 35/86/30
f 35/86/30 16/87/31 36/88/32
f 16/87/31 17/89/33 36/88/32
f 36/88/32 17/89/33 37/90/34
f 17/14/33 18/12/35 37/13/34
f 37/13/34 18/12/35 38/11/36
f 18/12/35 19/10/37 38/11/36
f 38/11/36 19/10/37 39/9/38
f 19/10/37 20/7/39 39/9/38
f 39/9/38 20/7/39 40/5/40
f 20/7/39 1/1/1 40/5/40
f 40/5/40 1/1/1 21/3/3
s 2
f 2/29/41 1/30/42 41/31/43
f 3/33/44 2/29/41 41/31/43
f 4/35/45 3/33/44 41/31/43
f 5/37/46 4/35/45 41/31/43
f 6/39/47 5/37/46 41/31/43
f 7/41/48 6/39/47 41/31/43
f 8/43/49 7/41/48 41/31/43
f 9/45/50 8/43/49 41/31/43
f 10/47/51 9/45/50 41/31/43
f 11/49/52 10/47/51 41/31/43
f 12/48/53 11/49/52 41/31/43
f 13/46/54 12/48/53 41/31/43
f 14/44/55 13/46/54 41/31/43
f 15/42/56 14/44/55 41/31/43
f 16/40/57 15/42/56 41/31/43
f 17/38/58 16/40/57 41/31/43
f 18/36/59 17/38/58 41/31/43
f 19/34/60 18/36/59 41/31/43
f 20/32/61 19/34/60 41/31/43
f 1/30/42 20/32/61 41/31/43
s 3
f 21/50/62 22/51/63 42/52/64
f 22/51/63 23/53/65 42/52/64
f 23/53/65 24/55/66 42/52/64
f 24/55/66 25/57/67 42/52/64
f 25/57/67 26/59/68 42/52/64
f 26/59/68 27/61/69 42/52/64
f 27/61/69 28/63/70 42/52/64
f 28/63/70 29/65/71 42/52/64
f 29/65/71 30/67/72 42/52/64
f 30/67/72 31/69/73 42/52/64
f 31/69/73 32/70/74 42/52/64
f 32/70/74 33/68/75 42/52/64
f 33/68/75 34/66/76 42/52/64
f 34/66/76 35/64/77 42/52/64
f 35/64/77 36/62/78 42/52/64
f 36/62/78 37/60/79 42/52/64
f 37/60/79 38/58/80 42/52/64
f 38/58/80 39/56/81 42/52/64
f 39/56/81 40/54/82 42/52/64
f 40/54/82 21/50/62 42/52/64
